<?xml version="1.0" encoding="UTF-8"?>
<svg xmlns="http://www.w3.org/2000/svg" xmlns:xlink="http://www.w3.org/1999/xlink" viewBox="0 0 50 50" version="1.1" width="50px" height="50px">
<g id="surface1">
<path style=" " d="M 0 4 L 0 46 L 50 46 L 50 4 Z M 2 6 L 48 6 L 48 44 L 2 44 Z M 4 8 L 4 30.78125 C 3.972656 30.914063 3.972656 31.054688 4 31.1875 L 4 42 L 46 42 L 46 37.15625 C 46.027344 37.023438 46.027344 36.882813 46 36.75 L 46 8 Z M 6 10 L 44 10 L 44 34.5625 L 34.71875 25.28125 C 34.496094 25.0625 34.183594 24.957031 33.875 25 C 33.652344 25.023438 33.441406 25.125 33.28125 25.28125 L 29.03125 29.53125 L 18.75 18.3125 C 18.519531 18.0625 18.179688 17.941406 17.84375 18 C 17.644531 18.027344 17.460938 18.117188 17.3125 18.25 L 6 28.6875 Z M 35 15 C 33.34375 15 32 16.34375 32 18 C 32 19.65625 33.34375 21 35 21 C 36.65625 21 38 19.65625 38 18 C 38 16.34375 36.65625 15 35 15 Z M 17.9375 20.4375 L 27.59375 30.96875 L 25.28125 33.28125 C 24.882813 33.679688 24.882813 34.320313 25.28125 34.71875 C 25.679688 35.117188 26.320313 35.117188 26.71875 34.71875 L 29.5625 31.84375 C 29.703125 31.757813 29.820313 31.640625 29.90625 31.5 L 34 27.4375 L 44 37.4375 L 44 40 L 6 40 L 6 31.46875 Z "/>
</g>
</svg>
